<?xml version="1.0" standalone="no"?>
<!DOCTYPE svg PUBLIC "-//W3C//DTD SVG 20010904//EN"
 "http://www.w3.org/TR/2001/REC-SVG-20010904/DTD/svg10.dtd">
<svg version="1.0" xmlns="http://www.w3.org/2000/svg"
 width="512.000000pt" height="512.000000pt" viewBox="0 0 512.000000 512.000000"
 preserveAspectRatio="xMidYMid meet">
<metadata>
Created by potrace 1.14, written by Peter Selinger 2001-2017
</metadata>
<g transform="translate(0.000000,512.000000) scale(0.100000,-0.100000)"
fill="#000000" stroke="none">
<path d="M2455 4459 c-277 -18 -357 -71 -450 -299 -29 -69 -45 -109 -95 -230
-55 -132 -68 -164 -95 -230 -14 -36 -35 -87 -47 -115 -11 -27 -29 -70 -39 -95
-42 -104 -72 -178 -94 -230 -13 -30 -35 -84 -50 -120 -14 -36 -34 -85 -45
-110 -10 -25 -30 -74 -45 -110 -62 -152 -94 -230 -139 -336 -14 -34 -26 -65
-26 -70 0 -5 -107 -117 -238 -249 -130 -132 -249 -254 -262 -270 -63 -77 -103
-154 -148 -290 -24 -72 -27 -94 -27 -225 0 -153 14 -216 75 -354 89 -199 289
-369 521 -443 74 -24 101 -27 224 -27 146 -1 225 14 330 65 22 10 43 19 47 19
33 0 159 109 383 331 144 143 265 259 269 259 5 0 36 12 70 26 60 26 90 38
216 89 36 15 90 37 120 50 30 13 84 35 120 50 36 14 85 34 110 45 25 10 74 30
110 45 84 34 151 62 220 90 30 13 80 33 110 45 30 12 80 32 110 45 73 30 141
58 220 90 36 15 90 37 120 50 30 12 80 33 110 45 147 61 197 95 247 165 45 63
61 134 74 328 20 297 6 366 -93 467 -61 64 -93 78 -383 164 l-80 24 -7 73 c-3
41 -11 150 -18 243 -10 147 -14 176 -37 220 -34 69 -87 122 -155 157 -54 28
-69 30 -280 45 -123 8 -232 17 -243 19 -15 4 -26 23 -44 82 -86 279 -103 322
-158 378 -20 20 -68 53 -107 71 -67 32 -76 34 -171 33 -55 -1 -158 -6 -230
-10z m345 -244 c17 -16 33 -41 36 -55 6 -24 24 -84 78 -245 14 -44 26 -85 26
-90 0 -6 -10 -24 -22 -39 -13 -16 -45 -57 -73 -92 -27 -35 -72 -93 -100 -130
-27 -36 -77 -101 -110 -144 -33 -43 -91 -119 -130 -169 -38 -50 -99 -129 -135
-175 -36 -46 -87 -112 -113 -147 -58 -77 -329 -430 -467 -608 -28 -35 -50 -67
-50 -72 0 -25 -34 0 -118 84 l-92 92 19 50 c37 97 59 150 75 180 9 17 16 37
16 45 0 9 6 24 14 35 7 11 19 38 26 60 7 22 19 49 25 60 7 11 18 38 25 60 7
22 19 49 26 60 8 11 14 26 14 34 0 8 11 37 24 65 13 28 36 80 51 116 14 36 35
86 46 113 10 26 28 68 38 95 11 26 32 76 46 112 15 36 37 90 50 120 12 30 33
80 45 110 12 30 32 80 45 110 36 88 62 150 90 220 62 152 58 150 267 166 90 7
193 11 230 10 59 -1 71 -5 98 -31z m568 -545 c295 -14 287 -5 302 -327 5 -120
10 -221 10 -225 0 -3 -24 -23 -52 -44 -29 -22 -57 -42 -63 -46 -5 -4 -26 -20
-45 -36 -19 -16 -75 -59 -123 -96 -49 -36 -116 -88 -150 -115 -34 -26 -116
-89 -182 -140 -66 -50 -130 -99 -142 -109 -12 -9 -52 -39 -88 -67 -36 -27 -95
-72 -130 -100 -35 -27 -105 -81 -155 -120 -51 -38 -170 -130 -264 -203 -94
-74 -181 -139 -194 -145 -21 -10 -31 -3 -119 85 l-96 96 59 75 c32 41 82 104
109 141 54 71 54 71 133 173 29 37 81 104 115 149 97 127 177 231 242 315 33
43 92 119 130 170 39 50 91 118 118 150 26 32 47 62 47 66 0 5 8 16 18 25 9 9
40 46 67 83 28 37 80 106 118 153 37 48 67 90 67 94 0 10 18 10 268 -2z m550
-755 c42 -14 124 -39 180 -57 96 -29 106 -34 130 -71 l26 -39 -15 -218 c-11
-160 -20 -224 -31 -242 -16 -24 -43 -40 -133 -76 -27 -12 -79 -33 -115 -47
-36 -15 -90 -37 -120 -50 -30 -12 -80 -33 -110 -45 -30 -12 -71 -29 -90 -38
-19 -8 -55 -23 -80 -32 -25 -10 -72 -29 -105 -43 -79 -33 -278 -115 -335 -137
-25 -10 -58 -25 -75 -34 -16 -9 -37 -16 -45 -16 -9 0 -24 -6 -35 -14 -11 -7
-31 -17 -45 -21 -14 -4 -43 -16 -65 -25 -38 -17 -117 -50 -215 -90 -25 -10
-70 -30 -101 -43 -114 -50 -110 -51 -210 49 -79 79 -104 114 -81 114 4 0 19
10 34 23 14 12 56 45 92 72 133 100 233 177 301 230 108 84 413 318 483 372
35 26 72 55 83 63 10 8 47 37 82 63 34 26 91 71 127 99 63 49 115 89 285 217
44 34 86 61 93 61 7 0 47 -11 90 -25z m-2095 -1093 l428 -428 -96 -95 c-53
-52 -98 -96 -101 -99 -6 -6 -854 842 -854 855 0 10 180 195 190 195 3 0 198
-193 433 -428z m-353 -358 l425 -425 -40 -35 c-85 -74 -252 -134 -376 -134
-188 0 -393 106 -495 255 -154 226 -151 482 9 723 15 23 33 42 40 42 6 0 203
-192 437 -426z"/>
</g>
</svg>
